<?xml version="1.0" encoding="iso-8859-1"?>
<!-- Generator: Adobe Illustrator 19.0.0, SVG Export Plug-In . SVG Version: 6.00 Build 0)  -->
<svg version="1.1" id="Layer_1" xmlns="http://www.w3.org/2000/svg" xmlns:xlink="http://www.w3.org/1999/xlink" x="0px" y="0px"
	 viewBox="0 0 512 512" style="enable-background:new 0 0 512 512;" xml:space="preserve">
<g>
	<g>
		<polygon points="255.997,10.063 260.382,6.594 268.713,0.001 		"/>
	</g>
</g>
<g>
	<g>
		<path d="M288.432,215.008c0-26.133-10.931-39.949-19.715-51.05C261.334,154.628,256,147.886,256,133.033
			c0-14.855,5.334-21.596,12.717-30.927c8.783-11.102,19.715-24.918,19.715-51.052S277.5,11.103,268.714,0.003l-8.332,6.591
			l-17.1,13.532C250.665,29.457,256,36.199,256,51.054c0,14.856-5.334,21.597-12.718,30.928
			c-8.783,11.102-19.714,24.917-19.714,51.051c0,26.133,10.931,39.948,19.715,51.049c7.383,9.331,12.716,16.071,12.716,30.926
			s-5.334,21.596-12.716,30.927c-8.783,11.102-19.715,24.917-19.715,51.051c0,26.133,10.931,39.949,19.715,51.05
			c7.383,9.331,12.716,16.072,12.716,30.927c0,14.858-5.335,21.6-12.718,30.933c-8.783,11.102-19.714,24.919-19.714,51.054
			c0,26.138,10.929,39.952,19.711,51.051l25.434-20.122C261.333,482.549,256,475.809,256,460.95c0-14.858,5.335-21.6,12.718-30.933
			c8.783-11.102,19.714-24.919,19.714-51.054c0-26.134-10.931-39.951-19.715-51.051C261.334,318.581,256,311.841,256,296.986
			s5.334-21.596,12.717-30.927C277.5,254.958,288.432,241.143,288.432,215.008z"/>
	</g>
</g>
<g>
	<g>
		<polygon points="96.583,10.063 100.276,7.141 109.299,0.001 		"/>
	</g>
</g>
<g>
	<g>
		<path d="M96.585,133.034c0-14.855,5.335-21.596,12.717-30.927c8.784-11.103,19.715-24.919,19.715-51.053
			s-10.932-39.951-19.716-51.051l-9.025,7.138L83.868,20.127c7.384,9.331,12.719,16.072,12.719,30.927
			c0,14.856-5.335,21.597-12.718,30.928c-8.783,11.102-19.714,24.918-19.714,51.051c0,26.133,10.931,39.948,19.714,51.049
			c7.383,9.331,12.718,16.071,12.718,30.926s-5.335,21.596-12.718,30.927c-8.783,11.102-19.714,24.917-19.714,51.051
			c0,26.133,10.928,39.945,19.708,51.043l25.434-20.124c-7.38-9.326-12.711-16.063-12.711-30.918s5.335-21.596,12.718-30.927
			c8.783-11.102,19.714-24.917,19.714-51.051c0-26.133-10.932-39.949-19.715-51.05C101.919,154.628,96.585,147.887,96.585,133.034z"
			/>
	</g>
</g>
<g>
	<g>
		<path d="M415.413,133.034c0-14.855,5.335-21.596,12.717-30.927c8.783-11.102,19.715-24.918,19.715-51.052
			c0-26.134-10.932-39.95-19.716-51.051l-9.107,7.204l-16.326,12.92c7.384,9.331,12.718,16.072,12.718,30.927
			c0,14.856-5.335,21.597-12.718,30.928c-8.783,11.102-19.714,24.918-19.714,51.051c0,26.133,10.931,39.948,19.714,51.049
			c7.383,9.331,12.718,16.071,12.718,30.926s-5.335,21.596-12.718,30.927c-8.783,11.102-19.714,24.917-19.714,51.051
			c0,26.133,10.928,39.945,19.708,51.043l25.434-20.124c-7.38-9.326-12.711-16.063-12.711-30.918s5.335-21.596,12.718-30.927
			c8.784-11.103,19.715-24.919,19.715-51.052c0-26.133-10.932-39.949-19.715-51.05C420.747,154.628,415.413,147.887,415.413,133.034
			z"/>
	</g>
</g>
<g>
	<g>
		<polygon points="415.411,10.063 419.022,7.206 428.127,0.001 		"/>
	</g>
</g>
<g>
	<g>
		<circle cx="33.095" cy="215.007" r="19.478"/>
	</g>
</g>
<g>
	<g>
		<circle cx="19.478" cy="460.945" r="19.478"/>
	</g>
</g>
<g>
	<g>
		<circle cx="176.295" cy="378.97" r="19.478"/>
	</g>
</g>
<g>
	<g>
		<circle cx="160.078" cy="133.032" r="19.478"/>
	</g>
</g>
<g>
	<g>
		<circle cx="192.512" cy="51.054" r="19.478"/>
	</g>
</g>
<g>
	<g>
		<circle cx="319.488" cy="297.239" r="19.478"/>
	</g>
</g>
<g>
	<g>
		<circle cx="319.488" cy="460.945" r="19.478"/>
	</g>
</g>
<g>
	<g>
		<circle cx="351.922" cy="215.007" r="19.478"/>
	</g>
</g>
<g>
	<g>
		<circle cx="460.088" cy="460.945" r="19.478"/>
	</g>
</g>
<g>
	<g>
		<circle cx="492.522" cy="378.97" r="19.478"/>
	</g>
</g>
<g>
	<g>
		<circle cx="478.909" cy="133.032" r="19.478"/>
	</g>
</g>
<g>
</g>
<g>
</g>
<g>
</g>
<g>
</g>
<g>
</g>
<g>
</g>
<g>
</g>
<g>
</g>
<g>
</g>
<g>
</g>
<g>
</g>
<g>
</g>
<g>
</g>
<g>
</g>
<g>
</g>
</svg>
