<?xml version="1.0" encoding="iso-8859-1"?>
<!-- Generator: Adobe Illustrator 19.0.0, SVG Export Plug-In . SVG Version: 6.00 Build 0)  -->
<svg version="1.1" id="Layer_1" xmlns="http://www.w3.org/2000/svg" xmlns:xlink="http://www.w3.org/1999/xlink" x="0px" y="0px"
	 viewBox="0 0 512 512" style="enable-background:new 0 0 512 512;" xml:space="preserve">
<path style="fill:#58595B;" d="M375.689,313.325c0,0-37.47,181.247-123.737,198.675l0,0h-4.309l0,0
	c-36.848,0-72.276-14.212-98.909-39.677l0,0c-34.746-33.222-48.88-82.597-36.98-129.173l7.844-30.696L375.689,313.325z"/>
<g>
	<path style="fill:#E0A88F;" d="M96.221,305.771h29.382v-90.912H96.221c-6.267,0-11.347,5.08-11.347,11.347v68.216
		C84.874,300.691,89.954,305.771,96.221,305.771z"/>
	<path style="fill:#E0A88F;" d="M399.065,214.859h-31.763v90.912h31.763c6.267,0,11.347-5.08,11.347-11.347v-68.216
		C410.412,219.94,405.332,214.859,399.065,214.859z"/>
</g>
<path style="fill:#414042;" d="M387.841,343.15l-12.153-29.825l-51.895-0.871l7.844,30.696c11.901,46.576-2.234,95.95-36.98,129.173
	l0,0c-20.299,19.409-45.71,32.272-72.962,37.297c8.503,1.567,17.184,2.381,25.947,2.381h4.309l0,0
	c36.848,0,72.276-14.212,98.909-39.677l0,0C385.607,439.101,399.742,389.726,387.841,343.15z"/>
<path style="fill:#F2C6A0;" d="M119.597,128.94v183.514l29.538,13.899c13.891,6.537,28.271,11.618,42.92,15.261
	c2.587,0.643,5.301,0.055,7.419-1.561c12.565-9.593,29.51-15.48,48.168-15.48c18.796,0,35.86,5.974,48.453,15.694
	c2.109,1.629,4.822,2.231,7.411,1.6c14.472-3.529,28.689-8.455,42.441-14.806l-0.759-13.734l-2.614-179.723L119.597,128.94z"/>
<path style="fill:#E6B593;" d="M119.597,128.94v0.785v97.891c0-22.862,13.602-46.611,30.5-62.248
	c3.273-3.029,8.565-1.477,9.655,2.847c6.751,26.806,23.123,45.273,54.978,45.273h41.891c14.782,0,27.671,0.387,40.558,0.751
	c19.698,0.554,35.377,16.683,35.377,36.388v29.941c0,19.97-11.61,38.119-29.739,46.492l0,0c-5.451,2.518-10.978,4.802-16.562,6.873
	c3.515,1.877,6.815,3.995,9.85,6.338c2.108,1.628,4.819,2.225,7.405,1.595c14.472-3.529,28.69-8.455,42.442-14.806l29.739-13.734
	V152.021v-18.419L119.597,128.94z"/>
<path style="fill:#58595B;" d="M176.617,0c-11.451,0-20.734,9.283-20.734,20.734v0.46l0,0c-43.861,0-79.418,35.557-79.418,79.418
	v53.2c0,29.979,17.657,35.632,43.133,47.54v-8.591c0-22.86,13.601-46.61,30.497-62.246c3.273-3.03,8.568-1.477,9.657,2.848
	c6.752,26.805,23.124,45.27,54.978,45.27h41.891c80.65,0,146.031-65.381,146.031-146.031V0H176.617z"/>
<g>
	<path style="fill:#414042;" d="M93.982,133.363c-1.089-4.325-6.384-5.878-9.657-2.848c-2.72,2.518-5.354,5.248-7.861,8.149v15.148
		c0,29.979,17.657,55.82,43.133,67.73v-28.78c0-6.532,1.114-13.137,3.095-19.604C107.52,165.788,98.547,151.487,93.982,133.363z"/>
	<path style="fill:#414042;" d="M369.766,0v32.602c0,80.65-65.381,146.031-146.031,146.031h65.77
		c80.65,0,146.031-65.381,146.031-146.031V0H369.766z"/>
	<circle style="fill:#414042;" cx="296.538" cy="242.917" r="9.803"/>
	<circle style="fill:#414042;" cx="190.235" cy="242.917" r="9.803"/>
	<circle style="fill:#414042;" cx="296.538" cy="242.917" r="9.803"/>
	<circle style="fill:#414042;" cx="190.235" cy="242.917" r="9.803"/>
</g>
<path style="fill:#F2C6A0;" d="M248.572,387.632c-10.564,0-21-1.516-31.042-4.509c-4.781-1.426-7.503-6.458-6.077-11.241
	c1.426-4.781,6.457-7.503,11.241-6.077c8.708,2.596,17.801,3.862,26.964,3.75c7.847-0.093,15.623-1.189,23.109-3.258
	c4.808-1.328,9.786,1.493,11.116,6.302c1.33,4.809-1.493,9.787-6.302,11.116c-8.985,2.483-18.307,3.798-27.708,3.909
	C249.438,387.63,249.006,387.632,248.572,387.632z"/>
<g>
</g>
<g>
</g>
<g>
</g>
<g>
</g>
<g>
</g>
<g>
</g>
<g>
</g>
<g>
</g>
<g>
</g>
<g>
</g>
<g>
</g>
<g>
</g>
<g>
</g>
<g>
</g>
<g>
</g>
</svg>
